# AST/ASF file generated using VICON BodyLanguage
# -----------------------------------------------
:version 1.10
:name VICON
:units
  mass 1.0
  length 0.45
  angle deg
:documentation
   .ast/.asf automatically generated from VICON data using
   VICON BodyBuilder and BodyLanguage model FoxedUp or BRILLIANT.MOD
:root
   order TX TY TZ RX RY RZ
   axis XYZ
   position 0 0 0  
   orientation 0 0 0 
:bonedata
  begin
     id 1 
     name lhipjoint
     direction 0.567149 -0.783011 0.255413 
     length 2.28399 
     axis 0 0 0  XYZ
  end
  begin
     id 2 
     name lfemur
     direction 0.34202 -0.939693 0  
     length 7.34031  
     axis 0 0 20  XYZ
    dof rx ry rz
    limits (-160.0 20.0)
           (-70.0 70.0)
           (-60.0 70.0)
  end
  begin
     id 3 
     name ltibia
     direction 0.34202 -0.939693 0   
     length 6.9833   
     axis 0 0 20   XYZ
    dof rx
    limits (-10.0 170.0)
  end
  begin
     id 4 
     name lfoot
     direction 0.136498 -0.375025 0.91691   
     length 2.33665   
     axis -90 7.62852e-016 20   XYZ
    dof rx rz
    limits (-45.0 90.0)
           (-70.0 20.0)
  end
  begin
     id 5 
     name ltoes
     direction 1.5367e-011 -4.21617e-011 1   
     length 1.15039   
     axis -90 7.62852e-016 20   XYZ
    dof rx
    limits (-90.0 20.0)
  end
  begin
     id 6 
     name rhipjoint
     direction -0.602854 -0.758518 0.247423   
     length 2.35775  
     axis 0 0 0  XYZ 
  end
  begin
     id 7 
     name rfemur
     direction -0.34202 -0.939693 0   
     length 7.43932   
     axis 0 0 -20   XYZ
    dof rx ry rz
    limits (-160.0 20.0)
           (-70.0 70.0)
           (-70.0 60.0)
  end
  begin
     id 8 
     name rtibia
     direction -0.34202 -0.939693 0   
     length 7.11893   
     axis 0 0 -20   XYZ
    dof rx
    limits (-10.0 170.0)
 end
 begin
     id 9 
     name rfoot
     direction -0.131771 -0.362037 0.922803   
     length 2.53019  
     axis -90 -7.62852e-016 -20   XYZ
    dof rx rz
    limits (-45.0 90.0)
           (-20.0 70.0)
  end
  begin
     id 10 
     name rtoes
     direction -1.53733e-011 -4.21932e-011 1   
     length 1.24596   
     axis -90 -7.62852e-016 -20   XYZ
    dof rx
    limits (-90.0 20.0)
  end
  begin
     id 11 
     name lowerback
     direction 0.0235427 0.999023 -0.0374125   
     length 2.21768   
     axis 0 0 0   XYZ
    dof rx ry rz
    limits (-20.0 45.0)
           (-30.0 30.0)
           (-30.0 30.0)
  end
  begin
     id 12 
     name upperback
     direction 0.0302156 0.996818 -0.073759   
     length 2.20352   
     axis 0 0 0   XYZ
    dof rx ry rz
    limits (-20.0 45.0)
           (-30.0 30.0)
           (-30.0 30.0)
  end
  begin
     id 13 
     name thorax
     direction 0.0187169 0.998235 -0.0563532   
     length 2.22103   
     axis 0 0 0   XYZ
    dof rx ry rz
    limits (-20.0 45.0)
           (-30.0 30.0)
           (-30.0 30.0)
  end
  begin
     id 14 
     name lowerneck
     direction -0.119528 0.987423 0.103481   
     length 1.72948   
     axis 0 0 0   XYZ
    dof rx ry rz
    limits (-20.0 45.0)
           (-30.0 30.0)
           (-30.0 30.0)
  end
  begin
     id 15 
     name upperneck
     direction 0.248049 0.963095 -0.104496   
     length 1.74979   
     axis 0 0 0   XYZ
    dof rx ry rz
    limits (-20.0 45.0)
           (-30.0 30.0)
           (-30.0 30.0)
  end
  begin
     id 16
     name head
     direction 0.0903589 0.994284 -0.056876  
     length 1.78268  
     axis 0 0 0   XYZ
    dof rx ry rz
    limits (-20.0 45.0)
           (-30.0 30.0)
           (-30.0 30.0)
  end
  begin
     id 17 
     name lclavicle
     direction 0.946008 0.242039 -0.215608  
     length 3.80783  
     axis 0 0 0   XYZ
    dof ry rz
    limits (-20.0 10.0)
           (0.0 20.0)
  end
  begin
     id 18 
     name lhumerus
     direction 1 -4.48991e-011 -2.25695e-027   
     length 4.83125   
     axis 180 -30 -90   XYZ
    dof rx ry rz
    limits (-60.0 90.0)
           (-90.0 90.0)
           (-90.0 90.0)
  end
  begin
     id 19
     name lradius
     direction 0.999991 0.00366712 -0.00211721   
     length 3.00391   
     axis 180 -30 -90   XYZ
    dof rx
    limits (-10.0 170.0)
  end
  begin
     id 20
     name lwrist
     direction 0.999991 0.00393016 -0.00141978   
     length 1.50195   
     axis -1.00488e-014 90 90   XYZ
    dof ry
    limits (-180.0 0.0)
 end
  begin
     id 21 
     name lhand
     direction 1 -4.49123e-011 2.72098e-026   
     length 1.2717   
     axis -1.73687e-014 90 90   XYZ
    dof rx rz
    limits (-90.0 90.0)
           (-45.0 45.0)
  end
  begin
     id 22 
     name lfingers
     direction 1 -4.48678e-011 5.4479e-026   
     length 1.02528   
     axis -3.47372e-014 90 90   XYZ
    dof rx
    limits (0.0 90.0)
  end
  begin
     id 23
     name lthumb
     direction 0.707107 -6.34851e-011 0.707107   
     length 1.4721   
     axis -90 45 -1.62303e-014   XYZ
    dof rx rz
    limits (-45.0 45.0)
           (-45.0 45.0)
  end
  begin
     id 24 
     name rclavicle
     direction -0.981723 0.189447 -0.0181673   
     length 3.74989  
     axis 0 0 0   XYZ 
    dof ry rz
    limits (-10.0 20.0)
           (-20.0 0.0)
  end
  begin
     id 25 
     name rhumerus
     direction -1 -4.48985e-011 2.38206e-027  
     length 4.61118   
     axis 180 30 90   XYZ
    dof rx ry rz
    limits (-90.0 60.0)
           (-90.0 90.0)
           (-90.0 90.0)
  end
  begin
     id 26 
     name rradius
     direction -1 -4.48977e-011 7.41019e-027   
     length 2.91491   
     axis 180 30 90   XYZ
    dof rx
    limits (-10.0 170.0)
  end
  begin
     id 27 
     name rwrist
     direction -1 -4.48549e-011 1.3624e-026   
     length 1.45745   
     axis -1.00488e-014 -90 -90   XYZ
    dof ry
    limits (-180.0 0.0)
  end
  begin
     id 28
     name rhand
     direction -1 -4.49107e-011 2.72109e-026   
     length 1.30769   
     axis -1.73687e-014 -90 -90   XYZ
    dof rx rz
    limits (-90.0 90.0)
           (-45.0 45.0)
  end
  begin
     id 29
     name rfingers
     direction -1 -4.48919e-011 5.44468e-026   
     length 1.05429   
     axis -3.47372e-014 -90 -90   XYZ
    dof rx
    limits (0.0 90.0)
  end
  begin
     id 30
     name rthumb
     direction -0.707107 -6.35315e-011 0.707107   
     length 1.51376   
     axis -90 -45 1.62303e-014   XYZ
    dof rx rz
    limits (-45.0 45.0)
           (-45.0 45.0)
  end
:hierarchy
  begin
    root lhipjoint rhipjoint lowerback
    lhipjoint lfemur
    lfemur ltibia
    ltibia lfoot
    lfoot ltoes
    rhipjoint rfemur
    rfemur rtibia
    rtibia rfoot
    rfoot rtoes
    lowerback upperback
    upperback thorax
    thorax lowerneck lclavicle rclavicle
    lowerneck upperneck
    upperneck head
    lclavicle lhumerus
    lhumerus lradius
    lradius lwrist
    lwrist lhand lthumb
    lhand lfingers
    rclavicle rhumerus
    rhumerus rradius
    rradius rwrist
    rwrist rhand rthumb
    rhand rfingers
  end

#!OML:ASF X:\für Bonn\!DataBase\2005_08_11_Bastian_Final\c3d\Bastian.ASF
:FULLY-SPECIFIED
:DEGREES
16
root 4.43937 18.3083 -16.731 723.062 1.78952 -3.36877
lowerback -4.89008 -1.61186 0.66049
upperback -1.38723 -2.18081 0.126953
thorax 1.29463 -1.08814 -0.368417
lowerneck -9.62472 -2.76924 -1.21333
upperneck -0.861498 -3.73275 7.3369
head 1.57402 -1.69386 2.40491
rclavicle 1.73937e-015 -1.23246e-014
rhumerus -51.1183 19.4651 -88.5389
rradius 76.549
rwrist 0.984606
rhand -13.7883 18.3017
rfingers 7.12502
rthumb 12.3332 -11.3145
lclavicle 1.73937e-015 -1.23246e-014
lhumerus -35.7948 -8.32647 72.3227
lradius 77.7505
lwrist 200.029
lhand -26.9645 14.9011
lfingers 7.12502
lthumb -0.38578 44.8805
rfemur -3.54764 -5.49357 26.1132
rtibia 38.8898
rfoot -1.8739 8.19023
rtoes -3.54661
lfemur -6.57411 0.605556 -13.5308
ltibia 42.8757
lfoot 3.11156 -8.03323
ltoes -34.4471
17
root 4.40908 18.6533 -16.44 723.069 2.13946 -3.61694
lowerback -6.2619 -1.75471 0.667934
upperback -1.4593 -2.38255 0.195027
thorax 1.9856 -1.1852 -0.360701
lowerneck -10.1081 -2.8324 -1.42641
upperneck 0.227646 -3.86879 7.47685
head 2.03764 -1.72455 2.48482
rclavicle 2.62147e-014 -6.36111e-015
rhumerus -50.7312 20.1419 -87.7393
rradius 79.9566
rwrist 1.06203
rhand -13.7748 18.9933
rfingers 7.12502
rthumb 12.3462 -10.6222
lclavicle 2.62147e-014 -6.36111e-015
lhumerus -34.9118 -8.91735 71.5629
lradius 81.6911
lwrist 200.751
lhand -27.2144 16.3194
lfingers 7.12502
lthumb -0.627116 46.2983
rfemur -2.28604 -3.09241 27.033
rtibia 36.8282
rfoot 2.94942 6.23782
rtoes -8.51511
lfemur -5.92313 -0.547141 -13.2439
ltibia 41.634
lfoot 8.04861 -7.05769
ltoes -35.3978
18
root 4.37824 18.9778 -16.1768 723.086 2.52311 -3.67014
lowerback -7.29501 -1.94036 0.409833
upperback -1.48844 -2.61862 0.239925
thorax 2.54194 -1.30119 -0.227243
lowerneck -10.8374 -2.87908 -1.69966
upperneck 1.26138 -3.97523 7.66534
head 2.53907 -1.73579 2.59543
rclavicle 6.53505e-015 -3.57812e-015
rhumerus -50.3735 20.7773 -86.8225
rradius 83.4911
rwrist 1.24087
rhand -13.6535 19.6854
rfingers 7.12502
rthumb 12.4632 -9.92301
lclavicle 6.53505e-015 -3.57812e-015
lhumerus -33.9465 -9.12994 70.7737
lradius 85.6052
lwrist 202.254
lhand -27.3572 16.5797
lfingers 7.12502
lthumb -0.765077 46.5581
rfemur -1.44269 -0.0552387 28.0244
rtibia 35.5224
rfoot 7.12142 4.01474
rtoes -13.3738
lfemur -5.74605 -1.7144 -13.2
ltibia 40.9795
lfoot 12.3175 -6.21821
ltoes -35.1321
19
root 4.3471 19.2735 -15.9306 723.057 2.97802 -3.6364
lowerback -8.07251 -2.14042 0.064231
upperback -1.48905 -2.858 0.224821
thorax 2.98854 -1.42065 -0.103996
lowerneck -11.3357 -2.93329 -1.87509
upperneck 2.0392 -4.0855 7.8251
head 2.91528 -1.75932 2.67988
rclavicle 3.16813e-014 1.07344e-014
rhumerus -50.0884 21.1444 -85.9
rradius 87.2374
rwrist 1.12398
rhand -13.409 20.3613
rfingers 7.12502
rthumb 12.6989 -9.2326
lclavicle 3.16813e-014 1.07344e-014
lhumerus -33.0048 -9.12754 69.9679
lradius 89.3993
lwrist 204.106
lhand -27.4215 15.8871
lfingers 7.12502
lthumb -0.827202 45.8652
rfemur -0.967523 2.47843 28.9275
rtibia 34.9853
rfoot 11.002 2.6001
rtoes -16.3595
lfemur -5.91128 -2.82964 -13.2539
ltibia 40.9582
lfoot 15.8361 -5.67659
ltoes -33.9153
20
root 4.31749 19.5505 -15.6961 722.95 3.44622 -3.60769
lowerback -8.60129 -2.35225 -0.290512
upperback -1.46504 -3.10709 0.224209
thorax 3.32603 -1.54643 0.0430349
lowerneck -11.5252 -2.98516 -2.00204
upperneck 2.56565 -4.17627 7.88162
head 3.14432 -1.78841 2.721
rclavicle 3.06625e-014 9.54166e-015
rhumerus -49.8644 21.3997 -84.9147
rradius 90.9841
rwrist 1.16416
rhand -12.8201 20.615
rfingers 7.12502
rthumb 13.2666 -8.94275
lclavicle 3.06625e-014 9.54166e-015
lhumerus -32.1523 -8.80155 69.23
lradius 93.2262
lwrist 206.067
lhand -28.2218 15.0925
lfingers 7.12502
lthumb -1.60008 45.0662
rfemur -0.826098 3.94514 29.5793
rtibia 35.1336
rfoot 14.3166 2.56557
rtoes -17.5506
lfemur -6.27985 -3.70893 -13.2903
ltibia 41.4987
lfoot 18.2958 -5.52883
ltoes -33.1069
21
root 4.29155 19.8077 -15.4715 722.696 3.87281 -3.67895
lowerback -8.80746 -2.54706 -0.511014
upperback -1.38954 -3.3456 0.255403
thorax 3.53463 -1.66692 0.158985
lowerneck -11.5889 -3.07132 -2.27652
upperneck 2.87974 -4.28242 8.01158
head 3.28595 -1.83176 2.8132
rclavicle -3.44394e-014 5.1684e-015
rhumerus -49.6484 21.5671 -83.8056
rradius 94.743
rwrist 1.44858
rhand -11.5727 20.1093
rfingers 7.12502
rthumb 14.4688 -9.36627
lclavicle -3.44394e-014 5.1684e-015
lhumerus -31.5266 -8.27552 68.6437
lradius 97.1692
lwrist 208.251
lhand -29.1491 14.3115
lfingers 7.12502
lthumb -2.49567 44.2767
rfemur -0.861032 4.41434 30.0786
rtibia 35.7964
rfoot 16.8127 3.66868
rtoes -17.7311
lfemur -6.65621 -4.32438 -13.2258
ltibia 42.4095
lfoot 19.746 -5.74099
ltoes -33.0858
